<svg width="399" height="134" xmlns="http://www.w3.org/2000/svg" xmlns:xlink="http://www.w3.org/1999/xlink" xml:space="preserve" overflow="hidden"><g transform="translate(-441 -293)"><path d="M154.173 59.8082 157.49 59.8082 157.49 84.3675 169.96 84.3675 169.96 87.0751 154.173 87.0751 154.173 59.8082ZM177.051 85.0161 169.234 67.1303 172.628 67.1303 178.73 81.4312 184.259 67.1303 187.501 67.1303 176.479 94.0162 173.276 94.0162 177.051 85.0161ZM188.802 77.2745 188.802 76.9692C188.802 70.982 192.959 66.7872 198.603 66.7872 204.247 66.7872 208.404 70.944 208.404 76.9312L208.404 77.2365C208.404 83.2617 204.247 87.4184 198.565 87.4184 192.883 87.4184 188.802 83.109 188.802 77.2745ZM205.124 77.2745 205.124 77.0072C205.124 72.3932 202.569 69.4182 198.603 69.4182 194.599 69.4182 192.082 72.3932 192.082 76.9692L192.082 77.2745C192.082 81.8125 194.56 84.7875 198.603 84.7875 202.607 84.7875 205.124 81.7745 205.124 77.2745ZM212.845 67.1303 216.011 67.1303 216.011 70.2954C216.926 68.4271 219.138 66.7872 222.418 66.7872 226.536 66.7872 229.435 69.0371 229.435 74.8335L229.435 87.0751 226.269 87.0751 226.269 74.6048C226.269 71.0967 224.782 69.5329 221.579 69.5329 218.642 69.5329 216.011 71.402 216.011 74.9861L216.011 87.0751 212.845 87.0751 212.845 67.1303ZM233.814 77.5031 233.814 77.1985C233.814 71.0967 237.628 66.7872 243.12 66.7872 246.437 66.7872 248.496 68.3888 249.641 70.3334L249.641 57.5962 252.806 57.5962 252.806 87.0751 249.641 87.0751 249.641 83.6429C248.496 85.588 245.712 87.4184 242.814 87.4184 237.59 87.4184 233.814 83.7196 233.814 77.5031ZM249.755 77.2365 249.755 76.9312C249.755 71.8205 247.314 69.4182 243.424 69.4182 239.458 69.4182 237.094 72.2025 237.094 77.0459L237.094 77.3505C237.094 82.3844 239.801 84.7875 243.158 84.7875 246.856 84.7875 249.755 82.3465 249.755 77.2365ZM280.752 57.5962 283.955 57.5962 283.955 83.4233 283.955 87.0751 280.752 87.0751 280.752 57.5962ZM290.513 57.5962 293.717 57.5962 293.717 83.2644 293.717 87.0751 290.513 87.0751 290.513 57.5962ZM300.773 59.8082 308.973 59.8082C314.045 59.8082 317.744 61.4863 317.744 66.8634L317.744 67.016C317.744 69.4949 316.753 71.7066 313.626 72.7744 317.591 73.7276 319.079 75.7494 319.079 79.2955L319.079 79.4482C319.079 84.5961 315.571 87.0751 310.117 87.0751L300.773 87.0751 300.773 59.8082ZM308.973 71.7066C312.977 71.7066 314.503 70.2574 314.503 66.9016L314.503 66.749C314.503 63.6601 312.71 62.4015 308.896 62.4015L304.015 62.4015 304.015 71.7066 308.973 71.7066ZM310.041 84.4822C314.007 84.4822 315.837 82.7277 315.837 79.4102L315.837 79.2575C315.837 75.9013 313.969 74.2995 309.583 74.2995L304.015 74.2995 304.015 84.4822 310.041 84.4822ZM322.622 81.5459C322.622 76.9312 327.504 75.3674 332.614 75.3674L335.475 75.3674 335.475 73.9183C335.475 70.7534 334.254 69.4182 331.203 69.4182 328.457 69.4182 326.932 70.5627 326.626 73.0031L323.461 73.0031C323.881 68.465 327.504 66.7872 331.356 66.7872 335.169 66.7872 338.639 68.3506 338.639 73.9183L338.639 87.0751 335.475 87.0751 335.475 84.5581C333.987 86.4272 332.195 87.4184 329.258 87.4184 325.559 87.4184 322.622 85.626 322.622 81.5459ZM335.475 80.0961 335.475 77.6178 332.728 77.6178C328.724 77.6178 325.788 78.609 325.788 81.5459 325.788 83.6049 326.78 84.9014 329.563 84.9014 332.919 84.9014 335.475 83.1857 335.475 80.0961ZM343.213 80.9353 346.302 80.9353C346.531 83.2996 347.789 84.7875 350.993 84.7875 354.005 84.7875 355.341 83.7576 355.341 81.6219 355.341 79.5249 353.777 78.8383 350.688 78.2657 345.502 77.3125 343.747 75.8633 343.747 72.3932 343.747 68.694 347.37 66.7872 350.497 66.7872 354.082 66.7872 357.171 68.2363 357.705 72.5458L354.654 72.5458C354.197 70.3721 352.976 69.4182 350.459 69.4182 348.171 69.4182 346.684 70.5627 346.684 72.2785 346.684 74.0709 347.675 74.7955 351.336 75.4441 355.455 76.2066 358.353 77.1218 358.353 81.3546 358.353 84.9774 355.874 87.4184 351.031 87.4184 346.264 87.4184 343.404 85.0161 343.213 80.9353ZM361.669 77.3125 361.669 77.0072C361.669 70.982 365.52 66.7872 371.012 66.7872 375.626 66.7872 379.974 69.5709 379.974 76.7026L379.974 77.7317 364.949 77.7317C365.101 82.2698 367.275 84.7875 371.355 84.7875 374.444 84.7875 376.237 83.6429 376.656 81.3166L379.822 81.3166C379.135 85.3214 375.817 87.4184 371.317 87.4184 365.673 87.4184 361.669 83.4523 361.669 77.3125ZM376.732 75.1768C376.427 71.058 374.292 69.4182 371.012 69.4182 367.771 69.4182 365.597 71.6306 365.063 75.1768L376.732 75.1768ZM257.53 77.3125 257.53 77.0072C257.53 70.982 261.381 66.7872 266.873 66.7872 271.487 66.7872 275.835 69.5709 275.835 76.7026L275.835 77.7317 260.81 77.7317C260.962 82.2698 263.136 84.7875 267.216 84.7875 270.306 84.7875 272.097 83.6429 272.517 81.3166L275.682 81.3166C274.996 85.3214 271.678 87.4184 267.178 87.4184 261.534 87.4184 257.53 83.4523 257.53 77.3125ZM272.593 75.1768C272.288 71.058 270.152 69.4182 266.873 69.4182 263.631 69.4182 261.457 71.6306 260.924 75.1768L272.593 75.1768ZM384.891 57.5962 388.094 57.5962 388.094 83.5815 388.094 87.0751 384.891 87.0751 384.891 57.5962ZM394.652 57.5962 397.856 57.5962 397.856 83.7403 397.856 87.0751 394.652 87.0751 394.652 57.5962Z" fill="#004ED4" transform="matrix(1.00288 0 0 1 441 293)"/><path d="M105.514 33.9488 61.4486 8.50755 17.3833 33.9488 13.6994 27.568 61.4486 0 109.198 27.568Z" fill="#004ED4" transform="matrix(1.00288 0 0 1 441 293)"/><path d="M75.1478 134 71.4641 127.619 115.529 102.178 115.529 51.2957 122.897 51.2957 122.897 106.432Z" fill="#00A14B" transform="matrix(1.00288 0 0 1 441 293)"/><path d="M47.7492 134 0 106.432 0 51.2957 7.36786 51.2957 7.36786 102.178 51.4331 127.619Z" fill="#DB0B5B" transform="matrix(1.00288 0 0 1 441 293)"/><path d="M24.1781 87.0751 24.1781 54.4488 31.4488 54.4488 31.4488 80.1265 45.5302 80.1265 45.5302 87.0751 24.1781 87.0751ZM43.736 54.4488 52.2493 54.4488 58.9218 66.5517 65.6864 54.4488 73.7856 54.4488 62.3272 73.4541 62.3272 87.0751 55.0564 87.0751 55.0564 73.4541 43.736 54.4488ZM89.9838 54.4488C96.4261 54.4488 100.153 58.1765 100.153 63.1923 100.153 66.5517 98.0369 69.3125 95.3679 70.187 98.3125 70.877 101.166 73.5922 101.166 77.8257 101.166 83.1643 97.1161 87.0751 90.9501 87.0751L77.7891 87.0751 77.7891 54.4488 89.9838 54.4488ZM88.833 67.5179C91.3638 67.5179 93.0209 66.1835 93.0209 63.9746 93.0209 61.8579 91.5945 60.4772 88.7411 60.4772L84.8759 60.4772 84.8759 67.5179 88.833 67.5179ZM89.4312 81.1391C92.2383 81.1391 93.9409 79.6665 93.9409 77.3201 93.9409 75.0649 92.2846 73.5004 89.4312 73.5004L84.8759 73.5004 84.8759 81.1391 89.4312 81.1391Z" fill="#004ED4" transform="matrix(1.00288 0 0 1 441 293)"/></g></svg>